<svg id="visual" viewBox="0 0 900 600" width="900" height="600" xmlns="http://www.w3.org/2000/svg" xmlns:xlink="http://www.w3.org/1999/xlink" version="1.1"><rect x="0" y="0" width="900" height="600" fill="#000"></rect><defs><linearGradient id="grad1_0" x1="33.3%" y1="100%" x2="100%" y2="0%"><stop offset="20%" stop-color="#2e2e2e" stop-opacity="1"></stop><stop offset="80%" stop-color="#2e2e2e" stop-opacity="1"></stop></linearGradient></defs><defs><linearGradient id="grad1_1" x1="33.3%" y1="100%" x2="100%" y2="0%"><stop offset="20%" stop-color="#2e2e2e" stop-opacity="1"></stop><stop offset="80%" stop-color="#1a1a1a" stop-opacity="1"></stop></linearGradient></defs><defs><linearGradient id="grad1_2" x1="33.3%" y1="100%" x2="100%" y2="0%"><stop offset="20%" stop-color="#000000" stop-opacity="1"></stop><stop offset="80%" stop-color="#1a1a1a" stop-opacity="1"></stop></linearGradient></defs><defs><linearGradient id="grad2_0" x1="0%" y1="100%" x2="66.7%" y2="0%"><stop offset="20%" stop-color="#2e2e2e" stop-opacity="1"></stop><stop offset="80%" stop-color="#2e2e2e" stop-opacity="1"></stop></linearGradient></defs><defs><linearGradient id="grad2_1" x1="0%" y1="100%" x2="66.7%" y2="0%"><stop offset="20%" stop-color="#1a1a1a" stop-opacity="1"></stop><stop offset="80%" stop-color="#2e2e2e" stop-opacity="1"></stop></linearGradient></defs><defs><linearGradient id="grad2_2" x1="0%" y1="100%" x2="66.7%" y2="0%"><stop offset="20%" stop-color="#1a1a1a" stop-opacity="1"></stop><stop offset="80%" stop-color="#000000" stop-opacity="1"></stop></linearGradient></defs><g transform="translate(900, 600)"><path d="M-378.6 0C-369.4 -46.6 -360.1 -93.2 -344.6 -142.7C-329.1 -192.3 -307.3 -244.8 -267.7 -267.7C-228.1 -290.6 -170.8 -283.9 -123.2 -297.5C-75.6 -311 -37.8 -344.8 0 -378.6L0 0Z" fill="#101010"></path><path d="M-252.4 0C-246.2 -31.1 -240.1 -62.1 -229.7 -95.2C-219.4 -128.2 -204.8 -163.2 -178.5 -178.5C-152.1 -193.7 -113.9 -189.3 -82.1 -198.3C-50.4 -207.4 -25.2 -229.9 0 -252.4L0 0Z" fill="#242424"></path><path d="M-126.2 0C-123.1 -15.5 -120 -31.1 -114.9 -47.6C-109.7 -64.1 -102.4 -81.6 -89.2 -89.2C-76 -96.9 -56.9 -94.6 -41.1 -99.2C-25.2 -103.7 -12.6 -114.9 0 -126.2L0 0Z" fill="#2e2e2e"></path></g><g transform="translate(0, 0)"><path d="M378.6 0C336.8 37.2 295 74.4 274.4 113.7C253.7 152.9 254.2 194.3 237.6 237.6C221 280.8 187.3 326 144.9 349.8C102.4 373.6 51.2 376.1 0 378.6L0 0Z" fill="#101010"></path><path d="M252.4 0C224.5 24.8 196.7 49.6 182.9 75.8C169.2 102 169.5 129.6 158.4 158.4C147.3 187.2 124.9 217.3 96.6 233.2C68.3 249 34.1 250.7 0 252.4L0 0Z" fill="#242424"></path><path d="M126.2 0C112.3 12.4 98.3 24.8 91.5 37.9C84.6 51 84.7 64.8 79.2 79.2C73.7 93.6 62.4 108.7 48.3 116.6C34.1 124.5 17.1 125.4 0 126.2L0 0Z" fill="#2e2e2e"></path></g></svg>