<svg id="visual" viewBox="0 0 900 600" width="900" height="600" xmlns="http://www.w3.org/2000/svg" xmlns:xlink="http://www.w3.org/1999/xlink" version="1.1"><path d="M585 600L684 600L684 525L616 525L616 450L587 450L587 375L666 375L666 300L633 300L633 225L618 225L618 150L639 150L639 75L588 75L588 0L900 0L900 75L900 75L900 150L900 150L900 225L900 225L900 300L900 300L900 375L900 375L900 450L900 450L900 525L900 525L900 600L900 600Z" fill="#000000"></path><path d="M699 600L678 600L678 525L702 525L702 450L668 450L668 375L688 375L688 300L722 300L722 225L664 225L664 150L662 150L662 75L657 75L657 0L900 0L900 75L900 75L900 150L900 150L900 225L900 225L900 300L900 300L900 375L900 375L900 450L900 450L900 525L900 525L900 600L900 600Z" fill="#1a1a1a"></path><path d="M710 600L723 600L723 525L740 525L740 450L703 450L703 375L698 375L698 300L708 300L708 225L685 225L685 150L712 150L712 75L713 75L713 0L900 0L900 75L900 75L900 150L900 150L900 225L900 225L900 300L900 300L900 375L900 375L900 450L900 450L900 525L900 525L900 600L900 600Z" fill="#2c2c2c"></path><path d="M724 600L724 600L724 525L748 525L748 450L732 450L732 375L797 375L797 300L739 300L739 225L764 225L764 150L742 150L742 75L728 75L728 0L900 0L900 75L900 75L900 150L900 150L900 225L900 225L900 300L900 300L900 375L900 375L900 450L900 450L900 525L900 525L900 600L900 600Z" fill="#404040"></path><path d="M776 600L795 600L795 525L824 525L824 450L804 450L804 375L827 375L827 300L833 300L833 225L818 225L818 150L773 150L773 75L834 75L834 0L900 0L900 75L900 75L900 150L900 150L900 225L900 225L900 300L900 300L900 375L900 375L900 450L900 450L900 525L900 525L900 600L900 600Z" fill="#555555"></path><path d="M862 600L876 600L876 525L873 525L873 450L860 450L860 375L876 375L876 300L867 300L867 225L855 225L855 150L846 150L846 75L856 75L856 0L900 0L900 75L900 75L900 150L900 150L900 225L900 225L900 300L900 300L900 375L900 375L900 450L900 450L900 525L900 525L900 600L900 600Z" fill="#6a6a6a"></path></svg>