<svg id="visual" viewBox="0 0 900 600" width="900" height="600" xmlns="http://www.w3.org/2000/svg" xmlns:xlink="http://www.w3.org/1999/xlink" version="1.1"><path d="M0 209L113 209L113 144L225 144L225 189L338 189L338 208L450 208L450 156L563 156L563 177L675 177L675 188L788 188L788 174L900 174L900 208L900 0L900 0L788 0L788 0L675 0L675 0L563 0L563 0L450 0L450 0L338 0L338 0L225 0L225 0L113 0L113 0L0 0Z" fill="#000000"></path><path d="M0 134L113 134L113 147L225 147L225 132L338 132L338 154L450 154L450 141L563 141L563 119L675 119L675 157L788 157L788 158L900 158L900 162L900 0L900 0L788 0L788 0L675 0L675 0L563 0L563 0L450 0L450 0L338 0L338 0L225 0L225 0L113 0L113 0L0 0Z" fill="#1a1a1a"></path><path d="M0 126L113 126L113 118L225 118L225 106L338 106L338 131L450 131L450 135L563 135L563 127L675 127L675 143L788 143L788 125L900 125L900 124L900 0L900 0L788 0L788 0L675 0L675 0L563 0L563 0L450 0L450 0L338 0L338 0L225 0L225 0L113 0L113 0L0 0Z" fill="#2c2c2c"></path><path d="M0 117L113 117L113 117L225 117L225 101L338 101L338 112L450 112L450 68L563 68L563 107L675 107L675 90L788 90L788 105L900 105L900 115L900 0L900 0L788 0L788 0L675 0L675 0L563 0L563 0L450 0L450 0L338 0L338 0L225 0L225 0L113 0L113 0L0 0Z" fill="#404040"></path><path d="M0 82L113 82L113 69L225 69L225 50L338 50L338 64L450 64L450 48L563 48L563 44L675 44L675 54L788 54L788 85L900 85L900 44L900 0L900 0L788 0L788 0L675 0L675 0L563 0L563 0L450 0L450 0L338 0L338 0L225 0L225 0L113 0L113 0L0 0Z" fill="#555555"></path><path d="M0 25L113 25L113 16L225 16L225 18L338 18L338 26L450 26L450 16L563 16L563 22L675 22L675 30L788 30L788 36L900 36L900 29L900 0L900 0L788 0L788 0L675 0L675 0L563 0L563 0L450 0L450 0L338 0L338 0L225 0L225 0L113 0L113 0L0 0Z" fill="#6a6a6a"></path></svg>