<svg id="visual" viewBox="0 0 900 600" width="900" height="600" xmlns="http://www.w3.org/2000/svg" xmlns:xlink="http://www.w3.org/1999/xlink" version="1.1"><path d="M503 600L564 525L571 450L582 375L467 300L503 225L606 150L460 75L451 0L900 0L900 75L900 150L900 225L900 300L900 375L900 450L900 525L900 600Z" fill="#000000"></path><path d="M602 600L631 525L571 450L595 375L607 300L519 225L612 150L497 75L514 0L900 0L900 75L900 150L900 225L900 300L900 375L900 450L900 525L900 600Z" fill="#1b1b1b"></path><path d="M574 600L669 525L582 450L631 375L619 300L552 225L653 150L598 75L645 0L900 0L900 75L900 150L900 225L900 300L900 375L900 450L900 525L900 600Z" fill="#2f2f2f"></path><path d="M707 600L625 525L614 450L652 375L689 300L659 225L707 150L615 75L627 0L900 0L900 75L900 150L900 225L900 300L900 375L900 450L900 525L900 600Z" fill="#454545"></path><path d="M749 600L718 525L722 450L717 375L670 300L733 225L664 150L699 75L710 0L900 0L900 75L900 150L900 225L900 300L900 375L900 450L900 525L900 600Z" fill="#5c5c5c"></path><path d="M761 600L738 525L763 450L790 375L714 300L749 225L717 150L711 75L779 0L900 0L900 75L900 150L900 225L900 300L900 375L900 450L900 525L900 600Z" fill="#737373"></path><path d="M773 600L814 525L804 450L765 375L791 300L776 225L787 150L817 75L765 0L900 0L900 75L900 150L900 225L900 300L900 375L900 450L900 525L900 600Z" fill="#8c8c8c"></path><path d="M863 600L844 525L843 450L852 375L860 300L832 225L833 150L813 75L852 0L900 0L900 75L900 150L900 225L900 300L900 375L900 450L900 525L900 600Z" fill="#a6a6a6"></path></svg>