<svg id="visual" viewBox="0 0 900 600" width="900" height="600" xmlns="http://www.w3.org/2000/svg" xmlns:xlink="http://www.w3.org/1999/xlink" version="1.1"><path d="M512 600L516 525L473 450L452 375L551 300L478 225L538 150L514 75L542 0L900 0L900 75L900 150L900 225L900 300L900 375L900 450L900 525L900 600Z" fill="#000000"></path><path d="M579 600L552 525L594 450L635 375L634 300L562 225L608 150L615 75L635 0L900 0L900 75L900 150L900 225L900 300L900 375L900 450L900 525L900 600Z" fill="#191919"></path><path d="M601 600L666 525L632 450L619 375L571 300L666 225L632 150L697 75L624 0L900 0L900 75L900 150L900 225L900 300L900 375L900 450L900 525L900 600Z" fill="#2b2b2b"></path><path d="M641 600L693 525L670 450L736 375L661 300L699 225L728 150L732 75L654 0L900 0L900 75L900 150L900 225L900 300L900 375L900 450L900 525L900 600Z" fill="#3f3f3f"></path><path d="M749 600L775 525L752 450L748 375L776 300L764 225L762 150L684 75L724 0L900 0L900 75L900 150L900 225L900 300L900 375L900 450L900 525L900 600Z" fill="#545454"></path><path d="M804 600L795 525L794 450L785 375L790 300L760 225L793 150L803 75L822 0L900 0L900 75L900 150L900 225L900 300L900 375L900 450L900 525L900 600Z" fill="#696969"></path><path d="M835 600L809 525L851 450L841 375L827 300L804 225L850 150L853 75L818 0L900 0L900 75L900 150L900 225L900 300L900 375L900 450L900 525L900 600Z" fill="#808080"></path></svg>